# xmcd
#
# Track frame offsets:
# 182
# 31600
# 51535
#
# Disc length: 989 seconds
#
#
# Revision: 0
# Processed by: cddbd v1.5.1PL0 Copyright (c) Steve Scherf et al.
# Submitted via: FreeRIP 2.93 
#
DISCID=1e03db03
DTITLE=Kool and The Gang - Ladies Night - Fresh - Big Fun
DYEAR=1992
DGENRE=Soul
TTITLE0=Ladies Night
TTITLE1=Fresh
TTITLE2=Big Fun
EXTD=5" 3-Track CD Single
EXTT0=
EXTT1=
EXTT2=
PLAYORDER=
